<svg width="773" height="1014" version="1.1" xmlns="http://www.w3.org/2000/svg" desc="Created with imagetracer.js version 1.2.5"><path d="M 338.5 0 L 349.5 0 L 360.5 2 L 364.5 4 L 371.5 4 L 390 13 L 398 23.5 Q 397.4 29.1 401 30.5 L 401 35.5 L 403 38.5 L 406 52.5 L 414 66.5 L 422 88.5 L 427 95.5 L 427 99.5 L 443 131.5 L 444 136.5 L 450 146.5 L 453 156.5 L 457 164.5 L 467 177.5 L 468 183.5 L 475 196.5 L 476 201.5 L 488 223.5 Q 487.3 229.2 490 231.5 L 495 238.5 L 496 245.5 L 501 251.5 L 501 256.5 Q 507.1 263.9 509 275.5 L 519 290.5 L 520 300.5 L 535 330.5 L 539 335.5 L 540 342.5 L 546 353.5 L 550 366.5 Q 554.7 371.3 556 379.5 L 561 385.5 L 564 398.5 L 570 405.5 L 579 423.5 L 582 437.5 L 585 440.5 L 593 459.5 L 597 463.5 Q 599.2 472.8 605 478.5 L 606 485.5 L 612 496.5 L 612 499.5 L 621 509.5 L 623.5 515 L 634.5 515 L 638.5 513 L 645.5 513 L 649.5 511 L 664.5 509 L 668.5 507 L 692.5 506 L 697.5 504 Q 707.1 505.1 712.5 502 L 713.5 503 L 721.5 503 L 722.5 502 L 730.5 502 L 731.5 503 L 739.5 503 L 756.5 506 L 763 510.5 Q 765.7 514.3 764 522.5 L 760 530 L 746.5 535 L 700.5 536 L 694.5 539 L 675.5 540 L 660.5 545 L 646.5 545 L 644 546 L 644 554.5 L 656 575.5 L 657 581.5 L 661 587.5 L 666 602 L 671 605.5 L 672 615.5 Q 677.7 618.8 678 627.5 L 683 632.5 L 687 647.5 L 690 650.5 L 690 653.5 L 694 659.5 L 700 678.5 Q 707.6 688.9 711 703.5 L 717 713.5 L 717 717.5 L 725 731.5 L 725 737.5 L 727 743.5 Q 730.6 745.4 730 751.5 L 735 758.5 L 735 763.5 L 739 770.5 L 742 784.5 L 746 788.5 L 746 791.5 L 749 797.5 L 752 814.5 L 754 817.5 L 759 835.5 L 764 842.5 L 764 850.5 L 769 862.5 L 769 866.5 L 773 872.5 L 773 878.5 L 763.5 893 L 748.5 898 L 747.5 897 L 727.5 896 L 724.5 894 L 718.5 894 L 709.5 891 L 702.5 891 L 696 886.5 Q 692.8 884.2 694 877.5 L 696.5 874 Q 709.3 872.8 715 864.5 Q 718.8 861.3 717 852.5 L 711 837.5 L 711 829.5 L 709 827.5 L 709 823.5 L 705 816.5 L 705 811.5 L 698 795.5 L 697 785.5 L 694 781.5 Q 695.3 771.3 692 765.5 L 684 753.5 L 684 749.5 L 679 732.5 L 672 721.5 L 672 714.5 L 668 709.5 L 668 705.5 L 663 695.5 L 663 691.5 Q 659.5 689.5 660 683.5 L 655 676.5 L 654 671.5 L 649 663.5 L 647 653.5 L 642 646.5 L 636 630.5 L 636 626.5 L 631 620.5 L 628 608.5 L 623 602.5 L 621 595.5 L 617 590.5 L 617 584.5 L 607 570.5 L 600.5 557 L 597.5 555 L 586.5 555 L 568.5 559 L 550.5 560 L 543.5 562 L 533.5 562 L 526.5 564 L 515.5 564 L 501.5 569 L 477.5 570 L 470.5 573 L 453.5 574 L 443.5 577 L 428.5 579 L 423.5 582 L 416.5 582 L 412.5 584 L 406.5 584 L 390.5 588 L 375.5 588 L 361.5 592 L 349.5 592 L 341.5 595 L 326.5 596 L 319.5 599 L 296.5 600 L 288.5 605 L 282.5 605 L 278.5 607 Q 273 605.5 271.5 608 L 263.5 608 L 259.5 610 L 253.5 610 L 249.5 612 L 244.5 612 L 239.5 614 L 214.5 618 L 199.5 623 L 193.5 623 L 176.5 628 L 168.5 628 L 157 634 L 155 639.5 L 155 643.5 L 148 655.5 Q 147.7 662.7 144 666.5 L 143 679.5 L 137 687.5 Q 134.7 707.2 125 719.5 L 125 726.5 L 121 732.5 L 120 739.5 L 117 744.5 Q 118.1 752.7 116 756 L 113 757.5 L 112 764.5 L 108 772.5 L 107 785.5 Q 102.3 792.3 101 802.5 L 97 808.5 L 96 817.5 L 92 824.5 L 90 832.5 L 88 847.5 L 85 852.5 L 80 867.5 L 80 876.5 Q 75 879 76 887.5 L 73 890.5 L 73 899.5 L 70 904.5 L 70 913.5 L 65 919.5 L 63 933.5 L 60 939.5 L 60 951.5 L 58 954.5 L 57 970.5 L 56 971.5 L 56 994.5 L 52 998.5 L 48 1008.5 L 45.5 1011 L 40.5 1013 L 25.5 1014 L 15.5 1012 L 2 1003.5 Q -1.4 998.4 0 988.5 L 3 983.5 L 3 978.5 L 7 969.5 L 9 961.5 L 9 953.5 L 12 946.5 L 12 941.5 L 16 935.5 L 18 912.5 L 22 907.5 L 27 896.5 L 27 885.5 L 30 880.5 Q 29.3 873.3 33 870.5 L 36 857.5 L 36 852.5 L 40 845.5 L 42 836.5 L 46 830.5 L 46 827.5 Q 50.1 822.6 51 814.5 L 55 807.5 L 55 799.5 L 55 797.5 L 56 790.5 L 64 768.5 L 65 757.5 Q 68.5 753 69 745.5 L 80 721.5 L 82 710.5 L 87 703.5 L 89 692.5 L 93 686.5 L 93 683.5 L 96 678.5 L 96 674.5 Q 100.8 668.3 102 658.5 L 107 649.5 L 107 639.5 L 103.5 635 Q 100 632.5 92.5 634 L 86 629.5 L 84 622.5 L 79 615.5 L 81.5 611 L 86.5 608 L 93.5 608 L 97.5 605 Q 104.7 605.7 107.5 602 L 120.5 602 L 124 599.5 L 129 587.5 L 130 581.5 L 133 576.5 L 133 573.5 L 135.5 570 L 138 568.5 L 142 552.5 L 147 544.5 L 148 538.5 L 153 528.5 L 155 517.5 L 159 511.5 L 159 505.5 L 163 500.5 L 169 485.5 L 169 480.5 L 179 460.5 L 179 454.5 L 183 445.5 L 183 441.5 L 188 432.5 L 189 423.5 Q 193.1 418.6 194 410.5 L 196 408.5 L 197 399.5 L 200 395.5 L 200 391.5 L 208 371.5 L 208 366.5 L 212 359.5 L 212 354.5 Q 217.8 344.8 219 330.5 Q 224 324 225 313.5 L 231 302.5 L 231 297.5 L 238 276.5 L 238 269.5 L 244 258.5 L 244 254.5 L 247 246.5 L 250 242.5 L 255 220.5 L 260 212.5 L 261 204.5 L 265 197.5 L 269 185.5 L 269 181.5 L 273 175.5 Q 273 169.5 276 166.5 Q 276 159.5 279 155.5 L 279 145.5 L 280.5 144 L 284 142.5 L 288 133.5 L 290 118.5 L 297 103.5 L 300 88.5 L 304 81.5 L 312 53.5 L 317 45.5 L 317 39.5 L 322 29.5 Q 321.9 20.9 325 15.5 L 325 8.5 L 331.5 2 L 338.5 0 Z M 357 58 L 350 75 L 349 87 L 344 95 L 344 100 L 335 121 L 335 127 Q 330 131 328 139 L 328 147 L 326 150 L 326 155 L 324 162 L 317 174 L 313 188 L 312 197 L 305 215 L 304 225 L 302 228 L 302 234 L 294 250 L 294 260 L 290 264 L 283 278 L 282 284 L 277 292 Q 277 298 274 301 L 273 312 L 269 318 Q 269 325 265 329 L 265 333 L 262 339 L 261 347 L 258 352 L 257 359 L 253 365 L 249 379 L 245 386 L 245 392 L 242 397 L 239 410 L 239 415 L 230 433 L 230 440 L 225 446 Q 225 452 222 455 L 222 461 L 210 494 L 204 501 L 204 508 Q 201 510 202 516 L 198 523 L 192 542 L 188 548 L 187 558 L 181 566 Q 180 574 176 580 L 176 588 L 190 588 L 201 585 L 208 585 L 217 582 L 228 581 L 235 578 L 241 578 L 246 576 L 254 576 Q 256 573 263 574 L 271 571 L 284 571 L 290 568 L 298 568 L 306 565 L 316 565 L 325 562 L 344 561 L 369 555 L 387 554 L 397 550 L 412 549 L 419 546 L 428 546 L 436 543 L 444 543 L 457 540 L 468 540 L 483 535 L 504 535 L 505 534 L 514 534 L 522 532 L 533 532 L 540 530 L 552 529 L 558 526 L 574 525 L 577 523 L 577 514 L 571 500 Q 572 497 570 498 L 566 492 L 565 485 L 557 474 L 555 465 L 551 459 L 551 456 L 548 453 L 541 436 L 537 432 L 534 423 L 530 417 L 529 409 L 520 392 L 517 389 L 516 381 L 513 377 L 512 372 L 507 362 L 507 357 L 502 352 L 502 349 Q 497 342 495 333 L 491 327 L 488 315 L 479 298 L 475 285 L 472 282 L 461 260 L 458 249 L 450 237 L 447 225 L 440 214 L 438 207 L 434 202 L 434 196 L 430 192 L 420 175 L 407 149 L 403 138 L 399 133 L 394 121 L 394 118 L 387 104 L 387 101 L 375 79 L 373 71 L 367 60 L 366 58 L 357 58 Z "></path></svg>