<svg width="518" height="814" version="1.1" xmlns="http://www.w3.org/2000/svg" desc="Created with imagetracer.js version 1.2.5"><path d="M 160.5 0 L 192.5 3 L 202.5 7 L 205 9.5 L 207.5 13 Q 214.7 13.3 217 18.5 L 219 23.5 L 228 33.5 Q 230 42.5 236 47.5 L 241 60.5 L 241 68.5 Q 244 71.5 243 78.5 L 247 84.5 L 250 94.5 L 255 100.5 L 255 112.5 Q 257.5 114 256 119.5 L 258 122.5 L 258 128.5 L 260 132.5 L 260 142.5 L 263 145.5 L 263 165.5 Q 265.3 166.8 264 171.5 L 268 177.5 L 270 224.5 L 269 225.5 L 269 245.5 L 270 246.5 L 270 254.5 L 267 258.5 L 267 277.5 L 264 284.5 L 264 301.5 Q 260.5 305 261 312.5 L 259 314.5 L 259 321.5 L 256 325.5 L 254 342.5 L 248 354.5 Q 248.9 363.4 245 367.5 L 245 376 L 253.5 376 L 257.5 374 L 266.5 373 L 282.5 368 L 289.5 368 L 293.5 366 L 306.5 366 L 318.5 362 L 327.5 362 L 328.5 363 L 338.5 363 Q 343.2 359.7 352.5 361 L 359.5 364 L 369.5 364 L 374.5 366 L 396.5 367 L 405.5 369 L 413.5 373 L 418.5 373 L 426.5 376 L 430.5 376 L 444.5 387 L 452.5 388 L 459.5 393 L 461.5 393 L 473.5 405 Q 478.3 405.3 480 408.5 L 489.5 420 L 494 422.5 L 496 431.5 L 502 439.5 L 504 447.5 L 506.5 450 L 510 451 L 511 453.5 L 511 466.5 Q 513.7 469.8 513 476.5 L 517 482.5 L 518 493.5 L 517 494.5 L 517 551.5 L 514 557.5 L 514 563.5 L 510 572.5 L 509 587.5 L 505 598.5 L 504 605.5 L 501 610.5 L 501 617.5 L 499 624.5 L 490 641.5 L 490 646.5 L 485 653.5 L 476 674.5 L 473 677.5 L 472 682.5 L 466 689.5 L 466 693.5 L 463 702.5 L 452 714.5 Q 452.1 720.1 448.5 722 L 444 725.5 L 443 729.5 L 434 738.5 Q 430.9 748.4 423.5 754 L 415 761.5 L 404.5 774 L 390 785.5 L 386.5 790 L 383.5 791 L 375.5 799 L 358.5 808 L 347.5 812 L 342.5 812 L 336.5 814 L 322.5 814 L 308.5 808 L 294.5 805 Q 283.8 800.2 277 791.5 L 269 775.5 L 265 771.5 L 263 765.5 L 266.5 761 L 273.5 758 L 277.5 758 L 282.5 762 L 290.5 764 L 312.5 775 L 315.5 775 L 321.5 778 L 334.5 778 Q 356.7 765.7 373 747.5 L 381.5 736 L 391 727.5 L 393 721.5 L 404.5 706 L 408 703.5 L 416 687.5 L 425 674.5 L 427 668.5 L 433 662.5 L 434 655.5 L 439 647.5 L 439 644.5 L 444 638.5 L 452 622.5 L 453 616.5 L 458 609.5 L 459 598.5 L 464 585.5 L 466 567.5 L 470 558.5 L 470 550.5 L 472 543.5 L 472 533.5 L 474 529.5 L 474 519.5 L 473 518.5 L 473 501.5 L 471 496.5 L 471 482.5 Q 465.5 475 465 462.5 L 457 450.5 L 455 443.5 L 446.5 434 L 440 429.5 L 435.5 424 L 429.5 422 L 427 419.5 L 424.5 416 L 420.5 415 L 404.5 404 L 394.5 403 L 377.5 397 L 361.5 396 L 360.5 395 L 326.5 395 L 325.5 396 L 311.5 396 L 297.5 400 L 290.5 400 L 279.5 404 L 274.5 404 L 269.5 407 L 261.5 408 L 243.5 416 L 226 428.5 L 224.5 431 L 219 435.5 L 214 443.5 L 213 448.5 L 200.5 462 L 195.5 465 L 189.5 466 L 180.5 470 L 173.5 471 L 172.5 470 L 158.5 469 L 155 466.5 L 145 454.5 L 150 446.5 L 151 441.5 L 153.5 439 Q 160.9 437.9 164 432.5 Q 167.7 422.2 176 416.5 L 177 411.5 L 192 387.5 L 194 377.5 L 203 361.5 L 204 354.5 L 208 349.5 L 208 343.5 L 211 337.5 Q 209.7 329.2 213 325.5 L 213 318.5 L 218 308.5 L 218 301.5 L 221 298.5 L 221 286.5 L 223 276.5 L 223 253.5 L 225 247.5 L 225 211.5 L 223 205.5 L 223 179.5 L 221 171.5 L 221 161.5 L 217 147.5 L 217 138.5 L 213 128.5 L 213 121.5 L 210 111.5 L 210 103.5 L 205 96.5 Q 206.5 89 202 87.5 L 202 77.5 L 197 71.5 L 197 65.5 L 193 59.5 L 191 52.5 L 183.5 43 L 177 38.5 L 175 33 L 172.5 32 L 160.5 32 L 151 37.5 Q 152.1 40.8 149.5 40 L 138 49.5 L 132 56.5 L 122 76.5 L 113 85.5 L 110 91.5 L 107 104.5 L 98.5 114 L 95 116.5 Q 92.4 119.4 93 125.5 L 87 137.5 L 87 141.5 L 85 146.5 L 77 162.5 L 74 165.5 L 73 177.5 L 69 188.5 L 69 192.5 L 65 197.5 Q 66.2 206.7 62 210.5 L 62 253.5 L 64 261.5 L 64 269.5 L 66 275.5 L 66 283.5 L 71 294.5 Q 69.9 303.1 73 307.5 L 73 318.5 L 75 321.5 L 75 325.5 L 80 340.5 L 80 345.5 L 82 348.5 L 82 356.5 L 85 362.5 L 85 368.5 L 90 374.5 L 91 392.5 L 95 399.5 L 96 408.5 L 99 412.5 L 99 425.5 L 103 432.5 L 104 444.5 L 107 448.5 Q 106.2 455.2 110 457.5 L 110 468.5 L 114 474.5 L 114 483.5 L 116 486.5 L 116 493.5 L 119 501.5 L 119 514 L 122 515.5 Q 124.7 518.8 124 525.5 L 127 528.5 Q 125.9 538 130 542.5 L 131 559.5 L 134 562.5 L 134 574.5 L 141 594.5 L 142 611.5 L 146 623.5 L 146 629.5 L 150 638.5 L 151 644.5 L 154 648.5 L 154 661.5 Q 156.8 664.2 156 670.5 L 160 684.5 L 165 694.5 L 165 702.5 L 168 709.5 L 169 724.5 L 172 729.5 L 172 734.5 L 177 745.5 L 177 749.5 Q 174.2 751.2 175 756.5 L 171.5 762 L 164.5 765 L 158.5 765 L 152.5 767 L 144.5 767 Q 142.7 764.3 136.5 766 L 132.5 764 L 122 754.5 Q 120.3 747.7 115 744.5 L 114 738.5 L 106.5 724 L 104 722.5 L 101 709.5 L 97 704.5 L 96 699.5 L 85 678.5 L 80 672.5 L 77 660.5 L 74 656.5 L 74 653.5 L 70 648.5 L 70 644.5 L 62 631.5 L 61 624.5 L 58 617.5 L 54 612.5 Q 53.3 603.7 49 598.5 L 49 593.5 L 43 582.5 L 42 572.5 L 39 568.5 L 39 563.5 L 32 546.5 L 30 531.5 L 25 523.5 L 25 518.5 L 22 514.5 L 19 495.5 L 14 483.5 L 14 479.5 L 11 473.5 L 11 467.5 L 9 464.5 L 8 441.5 Q 5.2 438.8 6 432.5 L 4 429.5 L 3 393.5 L 1 386.5 L 2 385.5 L 2 366.5 L 0 362.5 Q 3.3 358.8 2 350.5 L 2 348.5 Q 0.1 336.6 4 330.5 L 4 314.5 Q 7.3 307.3 6 295.5 L 8 291.5 L 8 273.5 L 11 268.5 L 11 249.5 L 13 245.5 L 13 229.5 L 10 221.5 L 11 220.5 L 11 211.5 L 8 204.5 L 7 194.5 L 8 193.5 L 8 180.5 L 6 177.5 L 6 169.5 L 5 168.5 L 4 157.5 L 6 152.5 L 9.5 149 L 18.5 145 L 22.5 145 L 36.5 141 L 40 138.5 L 52 114.5 L 54 106.5 L 59 101.5 Q 59.2 94.7 64 92.5 L 65 86.5 L 72 72.5 L 78.5 66 L 82 63.5 L 83 56.5 L 90 44 L 100 36.5 L 109.5 24 L 134.5 5 L 160.5 0 Z M 47 422 L 47 434 L 50 444 L 51 456 L 56 471 L 57 482 L 60 487 L 60 495 L 62 506 L 67 517 L 67 522 L 76 522 L 76 510 Q 71 498 71 481 L 69 479 L 68 471 L 63 458 L 62 445 L 59 440 L 59 432 L 56 428 L 56 422 L 47 422 Z M 74 535 L 74 547 L 76 548 L 84 548 L 84 538 L 83 537 L 83 535 L 74 535 Z "></path></svg>