<svg width="433" height="887" version="1.1" xmlns="http://www.w3.org/2000/svg" desc="Created with imagetracer.js version 1.2.5"><path d="M 199.5 0 L 210.5 1 L 211.5 2 L 232.5 3 L 238.5 5 L 249.5 5 L 256.5 7 L 265.5 7 L 290.5 19 L 300.5 27 L 304.5 28 L 334 52.5 Q 335.3 59.7 340 63.5 L 340 67.5 Q 337.9 75.4 331.5 79 L 322.5 80 L 316 74.5 L 315 71.5 L 301.5 57 L 283.5 44 L 261.5 31 L 253.5 29 L 247.5 29 L 231.5 24 L 205.5 24 L 204.5 25 L 193.5 25 L 186.5 28 L 170.5 31 Q 166 35.5 157.5 36 L 145.5 42 L 130 55.5 Q 130.8 57.8 128.5 57 L 113 76.5 L 102 100.5 L 93 114.5 L 92 120.5 L 88 126.5 L 83 139.5 L 75 168.5 Q 70.3 172.3 69 179.5 Q 68.6 188.1 65 193.5 L 63 206.5 L 55 229.5 L 55 237.5 L 52 245.5 L 51 258.5 L 48 266.5 L 47 278.5 L 45 284.5 L 45 294.5 L 42 304.5 L 40 329.5 L 38 334.5 L 38 360.5 L 37 361.5 L 37 369.5 L 35 378.5 L 35 391.5 L 34 392.5 L 34 403.5 L 33 404.5 L 33 465.5 L 34 466.5 L 34 500.5 L 35 501.5 L 35 515.5 L 36 516.5 L 36 538.5 L 39 549.5 L 39 564.5 L 41 571.5 L 43 592.5 L 46 600.5 L 47 611.5 L 50 618.5 L 53 647.5 L 56 654.5 L 58 668.5 Q 62.2 673.8 62 683.5 L 65 687.5 L 66 696.5 L 75 717.5 L 78 731.5 L 94 767.5 L 100 776.5 L 101 781.5 Q 106.3 785 108 791 L 113 793.5 L 115 798.5 L 136.5 820 L 151.5 831 L 165.5 839 L 170.5 840 L 176.5 845 Q 184.1 849.4 195.5 850 L 201.5 854 L 208.5 854 L 217.5 858 Q 225.9 857.1 230.5 860 L 241.5 860 L 250.5 863 L 272.5 863 L 281.5 861 L 291.5 861 L 297.5 859 L 306.5 859 L 327.5 853 L 336.5 849 L 342.5 848 L 346.5 845 L 357.5 842 L 370.5 836 L 378.5 830 L 388.5 826 Q 403.8 815.3 416 801.5 L 420 795 L 425.5 794 L 432 803.5 L 433 809.5 Q 430 825 420.5 834 L 411.5 839 L 405.5 845 L 390.5 855 L 360.5 871 L 337.5 875 L 334.5 877 L 314.5 883 L 305.5 883 L 289.5 886 Q 278 884.5 270.5 887 L 269.5 886 L 247.5 886 L 243.5 887 L 222.5 882 L 211.5 882 L 203.5 880 L 197.5 877 L 194.5 877 L 190.5 874 L 178.5 872 Q 174.2 867.8 166.5 867 Q 152.5 861 141.5 852 L 127.5 846 L 99 822.5 L 76.5 793 L 74 791.5 L 73 786.5 L 69 781.5 L 57 757.5 L 53 742.5 L 42 717.5 L 38 697.5 L 32 683.5 L 31 675.5 L 25 658.5 L 25 652.5 L 22 646.5 L 22 639.5 L 19 632.5 L 15 599.5 L 13 595.5 L 12 578.5 L 9 570.5 L 9 557.5 L 8 556.5 L 7 540.5 L 5 533.5 L 5 519.5 L 4 518.5 L 4 508.5 L 3 507.5 L 2 459.5 L 0 452.5 L 0 446.5 L 1 445.5 L 1 395.5 L 2 394.5 L 2 381.5 L 3 380.5 L 4 350.5 L 5 349.5 L 6 329.5 L 7 328.5 L 7 313.5 L 10 302.5 L 12 277.5 L 17 253.5 L 19 232.5 L 22 226.5 L 22 221.5 L 26 206.5 L 26 200.5 L 34 181.5 L 38 160.5 L 43 150.5 L 47 137.5 L 47 133.5 L 54 119.5 L 56 110.5 L 64 97.5 Q 67.3 84.3 75 75.5 L 77 68.5 L 90 51.5 L 107.5 34 L 120.5 23 Q 125 19.5 132.5 19 L 155.5 8 L 169.5 4 L 193.5 2 L 199.5 0 Z "></path></svg>