<svg width="4032" height="3024" version="1.1" xmlns="http://www.w3.org/2000/svg" desc="Created with imagetracer.js version 1.2.5"><path d="M 0 0 L 4031.5 0 L 4032 0.5 L 4032 96 L 3959.5 96 L 3958.5 95 L 3903.5 95 L 3902.5 94 L 3847.5 94 L 3846.5 93 L 3785.5 92 L 3784.5 91 L 3765.5 91 L 3764.5 90 L 3731.5 90 L 3730.5 89 L 3699.5 89 L 3698.5 88 L 3678.5 88 L 3677.5 87 L 3649.5 87 L 3648.5 86 L 3615.5 85 L 3614.5 84 L 3584.5 84 L 3583.5 83 L 3566.5 83 L 3565.5 82 L 3519.5 81 L 3518.5 80 L 3498.5 80 L 3497.5 79 L 3470.5 79 L 3469.5 78 L 3453.5 78 L 3452.5 77 L 3401.5 76 L 3400.5 75 L 3352.5 74 L 3351.5 73 L 3329.5 73 L 3328.5 72 L 3306.5 72 L 3305.5 71 L 3221.5 69 L 3220.5 68 L 3191.5 68 L 3190.5 67 L 3163.5 67 L 3162.5 66 L 3137.5 66 L 3136.5 65 L 3081.5 64 L 3080.5 63 L 2975.5 61 L 2974.5 60 L 2950.5 60 L 2949.5 59 L 2926.5 59 L 2925.5 58 L 2861.5 57 L 2860.5 56 L 2842.5 56 L 2841.5 55 L 2798.5 55 L 2797.5 54 L 2767.5 54 L 2766.5 53 L 2736.5 53 L 2735.5 52 L 2693.5 52 L 2692.5 51 L 2648.5 51 L 2647.5 50 L 2604.5 50 L 2603.5 49 L 2574.5 49 L 2573.5 48 L 2538.5 48 L 2537.5 47 L 2520.5 47 L 2519.5 46 L 2489.5 46 L 2488.5 45 L 2466.5 45 L 2465.5 44 L 2244.5 44 L 2243.5 43 L 2152.5 43 L 2151.5 42 L 2066.5 42 L 2065.5 41 L 1996.5 41 L 1995.5 40 L 1850.5 40 L 1849.5 39 L 1832.5 39 L 1830.5 39 L 1651.5 39 L 1650.5 38 L 1501.5 38 L 1500.5 37 L 1483.5 37 L 1482.5 38 L 1473.5 38 L 1472.5 37 L 1434.5 37 L 1433.5 36 L 1246.5 34 L 1245.5 33 L 1160.5 33 L 1159.5 32 L 1082.5 32 L 1081.5 31 L 1067.5 31 L 1064.5 32 L 1063.5 31 L 836.5 30 L 835.5 31 L 692.5 31 L 691.5 32 L 648.5 32 L 647.5 33 L 608.5 33 L 607.5 34 L 573.5 34 L 572.5 35 L 534.5 35 L 533.5 36 L 505.5 36 L 504.5 37 L 458.5 37 L 457.5 38 L 439.5 38 L 437.5 39 L 436.5 38 L 419.5 38 L 418.5 39 L 295.5 39 L 294.5 38 L 239.5 38 L 238.5 37 L 194.5 37 L 193.5 36 L 161.5 36 L 160.5 35 L 119.5 35 L 118.5 34 L 100.5 34 L 99.5 33 L 49.5 32 L 46.5 33 L 45.5 32 L 34.5 32 L 33.5 31 L 18 31 L 18 39.5 L 16.5 40 L 13.5 41 L 12 39.5 L 12 31 L 3.5 31 L 3 34 L 0 34 L 0 0 Z "></path><path d="M 1552.5 388 L 1568.5 388 L 1572 390.5 L 1573 395.5 L 1570.5 398 L 1534.5 409 L 1532.5 411 L 1525.5 413 L 1511 422.5 L 1511 460.5 L 1513.5 467 L 1521.5 467 L 1537.5 458 L 1545.5 456 L 1557.5 447 L 1566.5 446 L 1570 449.5 L 1571 455.5 L 1570 458 L 1550.5 470 L 1531.5 478 L 1520.5 487 L 1515 489.5 L 1515 504.5 L 1517 510.5 L 1518 521.5 L 1520 529.5 L 1525 539 Q 1534.8 540.5 1539.5 536 L 1552 524.5 L 1564 508.5 L 1564 497.5 L 1563 495.5 L 1564 493 L 1576.5 491 L 1582 494.5 Q 1586.5 498 1585 507.5 L 1574.5 524 L 1567 530.5 Q 1563.3 539.3 1555.5 544 L 1539.5 555 Q 1533.5 555 1530.5 558 L 1524.5 558 L 1515.5 555 L 1509 548.5 L 1502 533.5 L 1497 513.5 L 1497 503.5 L 1493 484.5 L 1491 442.5 L 1483 432.5 L 1482 426.5 L 1488.5 419 L 1491.5 418 L 1505.5 406 L 1521.5 398 L 1552.5 388 Z "></path><path d="M 1772.5 388 L 1785.5 390 L 1796 398.5 L 1797 404.5 Q 1794.3 409.8 1784.5 408 Q 1782.3 401.7 1771.5 404 L 1766.5 406 L 1755 417.5 L 1750 427.5 L 1749 440.5 L 1756 458.5 L 1758.5 461 L 1767.5 461 L 1783.5 455 L 1795.5 454 L 1803 458.5 Q 1803.8 464.3 1799.5 465 L 1797.5 465 L 1792.5 469 L 1781.5 471 L 1769 477 L 1769 485.5 L 1777 497.5 L 1782 508.5 L 1782 517.5 L 1778.5 520 L 1769.5 521 Q 1759.4 517.1 1753 509.5 L 1735 474.5 L 1733 465.5 L 1730 459.5 L 1728 448.5 L 1728 432.5 L 1730 422.5 L 1736 413.5 L 1737 409.5 L 1740.5 406 Q 1742.8 406.8 1742 404.5 L 1754.5 394 L 1772.5 388 Z "></path><path d="M 630.5 389 L 643.5 390 L 655 399.5 L 665 421.5 L 666 433.5 L 668.5 440 Q 672 442.5 679.5 441 L 685.5 443 Q 695.9 447.6 703 455.5 L 711 468.5 L 712 477.5 L 708 492.5 L 702 504.5 L 691.5 515 L 678.5 525 L 667.5 530 L 659.5 532 L 646.5 532 Q 637.2 528.8 632 521.5 Q 628.5 511.5 620.5 506 L 617 503.5 L 608 480.5 L 603 454.5 L 598 446.5 L 598 441.5 L 603 434.5 L 603 425.5 L 608 407.5 Q 612 398.5 619.5 393 L 630.5 389 Z M 629 410 L 625 417 L 622 430 Q 619 449 626 460 L 627 461 L 635 461 L 638 458 L 645 445 L 645 430 L 641 415 L 639 412 L 639 410 L 629 410 Z M 666 459 L 664 460 L 654 472 L 647 476 L 635 475 L 635 484 L 641 499 L 641 507 L 649 514 L 661 514 L 676 505 Q 685 497 690 484 L 690 475 L 688 468 Q 682 458 666 459 Z "></path><path d="M 333.5 391 Q 346.8 388.8 351 395.5 L 362 414.5 L 381 465.5 L 386 482.5 Q 384.8 490.2 388 493.5 L 388 503.5 L 381.5 514 L 375.5 516 L 370.5 515 L 367 512.5 L 365 506.5 L 367 502.5 L 367 486.5 L 364.5 481 L 356.5 481 L 350.5 484 L 325.5 489 L 321 491.5 Q 318.1 496.1 319 504.5 L 317 508.5 L 316 521.5 L 312.5 529 Q 310.2 531.7 304.5 531 L 297 525.5 Q 293.8 522.2 295 514.5 L 296 513.5 L 296 490.5 Q 289.2 487.8 291 476.5 L 299 470.5 L 303 457.5 L 304 447.5 L 311 428.5 L 312 412.5 L 316.5 406 L 325 401.5 L 333.5 391 Z M 334 421 L 330 433 L 330 441 L 327 452 L 327 468 L 337 468 Q 341 464 349 464 L 356 459 L 356 451 Q 351 445 350 435 L 343 423 L 343 421 L 334 421 Z "></path><path d="M 1220.5 415 L 1239.5 415 Q 1240.8 417.2 1245.5 416 L 1266 427.5 L 1278 449.5 L 1280 460.5 L 1280 481.5 L 1275 499.5 L 1269 511.5 L 1256.5 526 L 1245.5 534 L 1233.5 535 L 1225.5 533 L 1219 527.5 L 1215.5 522 Q 1206.3 521.7 1202 516.5 L 1195 508.5 L 1188 491.5 L 1185 478.5 L 1185 465.5 L 1183 459.5 L 1187 444.5 L 1195 430.5 L 1198.5 427 L 1206.5 420 L 1220.5 415 Z M 1225 431 L 1217 434 Q 1210 440 1207 450 L 1207 462 L 1210 469 L 1210 473 L 1214 481 L 1214 485 L 1222 501 Q 1222 507 1225 512 L 1231 517 Q 1238 519 1242 516 L 1247 511 L 1255 498 Q 1255 489 1259 485 L 1259 479 L 1261 473 L 1260 461 L 1253 443 L 1241 432 Q 1235 429 1225 431 Z "></path><path d="M 2544.5 415 L 2566.5 415 L 2574.5 417 L 2581.5 417 L 2587.5 419 L 2597.5 419 L 2602 421.5 L 2602 423.5 L 2596.5 429 L 2586.5 431 L 2574 431 L 2574 439.5 L 2578 444.5 L 2579 452.5 L 2582 458.5 L 2589 482.5 L 2593 501.5 L 2593 510.5 L 2592 511.5 L 2592 520.5 Q 2596.6 523.4 2598 529.5 L 2597 534.5 L 2594.5 538 L 2580.5 545 L 2551.5 546 L 2550.5 547 Q 2543.6 545.4 2541 539.5 Q 2540.1 532.6 2544.5 531 L 2550.5 530 L 2551.5 531 L 2564.5 531 L 2570.5 529 L 2576.5 529 L 2578 527.5 L 2578 519.5 Q 2575.3 518.8 2576 514.5 L 2577 513.5 L 2577 500.5 L 2574 487.5 L 2571 483.5 L 2566 463.5 L 2557 449.5 L 2555 442.5 Q 2558.8 439.2 2557 431 L 2541.5 432 L 2523.5 441 L 2511.5 443 L 2509 442 L 2504 435.5 L 2504 431.5 L 2508.5 426 Q 2518 424.5 2524.5 420 L 2528.5 420 L 2544.5 415 Z "></path><path d="M 2760.5 415 L 2838.5 416 L 2845 420.5 L 2846 423.5 L 2842.5 428 Q 2839 430.5 2831.5 429 L 2830.5 430 L 2807.5 430 L 2802 431 L 2802 439.5 L 2804 440 L 2804 441.5 L 2812 448.5 L 2818 459 L 2822 461.5 L 2839 495.5 L 2841 505.5 L 2843 508.5 L 2844 520.5 L 2843 521.5 L 2842 533.5 L 2840 538.5 L 2831.5 551 Q 2826 557.5 2814.5 558 Q 2805.1 555.9 2800 549.5 L 2801.5 546 L 2810.5 545 L 2818 539.5 L 2825 525.5 L 2826 505.5 L 2817 484.5 L 2806 466.5 L 2799.5 459 L 2793.5 457 L 2786 450.5 L 2785 441.5 L 2786 440.5 L 2786 431 L 2760.5 432 L 2754 426.5 L 2753 421.5 L 2755.5 417 L 2760.5 415 Z "></path><path d="M 972.5 420 L 983.5 420 L 995 424 Q 997.6 426.3 997 432.5 L 994.5 436 L 987.5 440 L 984.5 440 L 979.5 437 L 971.5 437 L 961 446.5 Q 952.6 454.6 949 467.5 L 949 485.5 Q 952.1 496.4 958.5 504 Q 963.4 509.6 971.5 512 L 987.5 513 L 993.5 510 L 999.5 510 L 1005 513.5 Q 1005.8 519.3 1002.5 521 L 991.5 528 Q 983.6 530.6 971.5 529 Q 954.8 525.2 944 515.5 L 937 506.5 L 931 494.5 L 928 481.5 L 928 470.5 L 933 454.5 L 940.5 443 Q 942.8 443.8 942 441.5 L 950.5 430 L 961.5 423 L 972.5 420 Z "></path><path d="M 2359.5 420 L 2364.5 420 L 2372 425.5 L 2373 427.5 L 2373 443.5 L 2375 452.5 L 2375 463.5 L 2376 464.5 L 2378 483.5 L 2382 494.5 L 2383 502.5 L 2390 517.5 L 2391 523.5 L 2395.5 530 L 2400 533.5 L 2400 537.5 L 2396.5 544 L 2388.5 545 L 2377 535.5 L 2375 526.5 L 2366 506.5 L 2364 493.5 L 2361 485.5 L 2361 479.5 L 2359.5 478 Q 2351 476 2349 480.5 Q 2349.8 482.8 2347.5 482 L 2329.5 494 L 2319.5 497 L 2314 502.5 Q 2314.7 510.2 2310.5 513 L 2304.5 514 L 2301 513 L 2299 508 L 2293.5 507 L 2289 503.5 L 2286 496.5 L 2289.5 491 L 2292 489.5 L 2292 474.5 Q 2288.3 466.2 2288 454.5 L 2282 445.5 L 2281 437.5 L 2285.5 432 L 2296.5 432 L 2300 435.5 L 2304 446.5 L 2309 478.5 L 2311.5 482 L 2320.5 482 L 2335.5 473 L 2340 468.5 L 2346 455 L 2351.5 454 L 2354 451.5 L 2354 443.5 L 2350 435.5 L 2349 428.5 L 2352.5 423 L 2359.5 420 Z "></path><path d="M 2058.5 423 L 2065.5 423 L 2082 430 L 2088 440.5 L 2085.5 445 Q 2082.3 447.3 2075.5 446 L 2065.5 441 L 2054.5 441 L 2051 443.5 L 2040 460.5 L 2035 476.5 L 2035 485 L 2044.5 485 L 2057.5 480 L 2063.5 480 L 2083.5 470 L 2095.5 468 L 2102 472.5 Q 2104.5 476 2103 483.5 L 2102 484.5 L 2102 511.5 L 2101 512.5 L 2101 547.5 L 2102 550.5 L 2101 551.5 L 2101 560.5 L 2103 566.5 L 2105 584.5 L 2102.5 587 L 2096.5 589 L 2089 583.5 L 2086 577.5 L 2084 566.5 L 2083 534.5 L 2084 533.5 L 2084 497.5 L 2083 492 L 2063.5 494 L 2041 503 Q 2038.9 514.7 2046.5 518 L 2049.5 520 L 2060.5 520 Q 2062.8 516.8 2069.5 518 L 2074 521.5 L 2075 528.5 L 2068.5 536 Q 2064.2 539.7 2054.5 538 L 2043.5 535 L 2028 522.5 L 2019 506.5 L 2016 494.5 L 2015 478.5 Q 2018.2 460.2 2026 446.5 L 2040.5 430 L 2049.5 425 L 2058.5 423 Z "></path><path d="M 2992.5 436 Q 3006.3 434.2 3010 442.5 L 3019 464.5 L 3024 486 L 3032.5 486 L 3033 484.5 Q 3047.7 470.3 3057 452 L 3067.5 449 L 3072 452.5 L 3075 458.5 L 3075 461.5 L 3033 515.5 L 3033 525.5 L 3034.5 527 L 3048.5 527 L 3059.5 524 L 3066.5 524 L 3089.5 517 L 3094.5 517 L 3099 519 Q 3100.6 521.1 3100 526.5 L 3096.5 531 L 3074.5 539 L 3053.5 541 L 3048.5 543 L 3039.5 543 L 3029.5 547 L 3025.5 547 L 3019 541.5 L 3009 526.5 L 3008 519.5 L 3011 512.5 L 3011 498.5 L 3006 483.5 L 3006 478.5 L 3003.5 475 L 3001 473.5 L 3001 466.5 L 2999 458.5 L 2991 449.5 L 2989 438.5 L 2992.5 436 Z "></path><path d="M 3251.5 440 L 3262.5 440 L 3266 442.5 Q 3269.9 448.6 3268 460.5 L 3267 461.5 L 3266 482.5 L 3265 483.5 L 3264 536.5 L 3265 539 Q 3275.2 540.4 3281.5 537 L 3303.5 525 L 3313.5 515 L 3319.5 515 L 3324 518.5 Q 3326.8 521.2 3326 527.5 L 3318.5 538 L 3285.5 556 L 3273.5 560 L 3262.5 560 L 3255.5 558 L 3248 550.5 L 3245 543.5 L 3245 534.5 L 3246 533.5 L 3246 521.5 L 3247 520.5 L 3247 493.5 L 3248 492.5 L 3248 480.5 L 3249 479.5 L 3249 455.5 L 3247 449.5 L 3247 443.5 L 3251.5 440 Z "></path><path d="M 3861.5 441 L 3867.5 441 L 3876 446.5 L 3882 458.5 L 3882 468.5 L 3880 474.5 L 3880 483.5 L 3879 484.5 L 3877 502.5 L 3872 511.5 L 3870 520.5 L 3865 530.5 L 3860.5 535 Q 3855.4 537.4 3846.5 536 L 3821.5 518 L 3797 493.5 L 3790.5 485 L 3782 485 L 3782 494.5 L 3784 501.5 L 3786 522.5 L 3793 542.5 L 3793 550.5 Q 3789.9 555.9 3781.5 556 L 3776 552.5 L 3771 540.5 L 3769 529.5 L 3767 526.5 Q 3767.6 520.4 3765 517.5 L 3765 508.5 L 3761 499.5 L 3760 488.5 L 3756 480.5 L 3756 474.5 L 3761 467.5 L 3762 454.5 L 3766.5 450 L 3774.5 449 Q 3790.2 453.3 3798 465.5 L 3815 488.5 L 3826.5 500 L 3840.5 511 L 3852 512 L 3858 496.5 L 3861 483.5 L 3862 459.5 Q 3857.1 454.4 3858 443.5 L 3861.5 441 Z "></path><path d="M 3578.5 451 L 3583.5 451 L 3592 457.5 L 3600 478.5 L 3610 512.5 L 3615 521.5 L 3615 524.5 L 3619 531.5 L 3623 543.5 L 3623 554.5 Q 3620.7 558.7 3613.5 558 L 3606 552.5 L 3603 544.5 L 3602 536.5 L 3595 522.5 L 3587.5 502 L 3579 502 L 3579 505.5 Q 3576.6 516.1 3570.5 523 Q 3566.8 526.3 3558.5 525 Q 3548.3 516.2 3534.5 511 L 3523.5 502 L 3515 502 L 3515 510.5 L 3518 524.5 Q 3524.3 531.2 3525 543.5 L 3521.5 548 Q 3518.2 550.7 3511.5 550 L 3505 544.5 L 3500 530.5 L 3498 517.5 L 3494 505.5 L 3493 495.5 L 3491 487.5 L 3488 482.5 L 3488 477.5 L 3491 467.5 L 3495.5 462 L 3504.5 461 L 3510.5 463 L 3522 474.5 L 3524 478.5 L 3536.5 492 L 3550.5 501 L 3560 501 L 3563 495.5 Q 3565.1 481.6 3570 470.5 L 3570 463.5 L 3574 453 L 3578.5 451 Z "></path><path d="M 567.5 750 Q 577.9 750.6 584 755.5 L 595 773.5 L 599 785.5 L 600 794.5 L 598 805.5 Q 593.8 809.8 593 817.5 L 586.5 824 L 576.5 831 L 565 831 L 566 847.5 L 572 863.5 L 572 869.5 L 567.5 876 Q 563.9 878.9 556.5 878 L 550 873.5 L 540 858.5 L 528 829.5 L 526 814.5 L 524 808.5 L 524 791.5 L 529 773.5 L 541.5 758 L 554.5 751 L 566.5 751 L 567.5 750 Z M 559 769 L 555 771 L 547 780 L 547 788 L 551 790 L 553 795 L 555 805 L 565 812 L 573 812 Q 577 807 578 800 L 578 785 L 572 773 Q 569 767 559 769 Z "></path><path d="M 289.5 753 L 298.5 754 L 302 757.5 L 302 771.5 L 322 797.5 L 330 815.5 Q 330 826.5 334 833.5 L 334 847.5 L 331 858.5 L 323.5 868 L 308.5 872 Q 307.3 869.8 302.5 871 L 296.5 868 L 284 855.5 L 278 841.5 L 275 827.5 Q 276.5 822 274 820.5 L 274 799.5 L 275 798.5 L 275 783.5 Q 277.9 778.9 277 770.5 L 279 767.5 L 279 762.5 Q 280.4 756.4 285.5 754 L 289.5 753 Z M 295 807 L 296 829 L 301 843 Q 304 849 314 847 L 314 836 L 312 826 L 304 809 L 304 807 L 295 807 Z "></path><path d="M 873.5 754 L 878.5 755 L 886 759.5 L 890 766.5 L 890 772.5 L 884 777 L 884 786.5 L 887 789.5 Q 890.5 801.5 898 809.5 L 901 817.5 L 903 829.5 L 909.5 838 L 929 855.5 L 930 862.5 L 925.5 868 L 918.5 868 L 909.5 864 L 902.5 858 L 892.5 858 Q 885.9 867.9 866.5 865 Q 851.8 860.8 844 849.5 L 840 842.5 L 837 829.5 L 837 806.5 L 843 781.5 Q 848.1 769.1 856.5 760 L 873.5 754 Z M 863 831 L 863 840 L 870 846 L 878 846 Q 880 838 876 835 Q 873 829 863 831 Z "></path><path d="M 1534.5 771 L 1599.5 771 L 1600.5 772 L 1609.5 772 L 1619.5 774 L 1627 778.5 L 1628 782.5 L 1624.5 786 L 1610.5 787 L 1609.5 786 L 1597.5 786 L 1596.5 787 L 1577.5 787 L 1576 788.5 L 1576 814.5 L 1578 819.5 L 1578 825.5 L 1585 854.5 L 1586 876.5 L 1582.5 881 L 1574.5 882 L 1568 877.5 L 1566.5 875 Q 1564.3 875.8 1565 873.5 L 1564 870.5 L 1566 867.5 L 1566 855.5 L 1560 828.5 L 1557 805.5 Q 1554.6 794.4 1546.5 789 L 1525.5 790 L 1514.5 794 L 1510.5 794 L 1500 788 L 1499 783.5 L 1504.5 776 L 1509.5 774 L 1527.5 773 L 1534.5 771 Z "></path><path d="M 2689.5 771 L 2694 773.5 Q 2698.2 778.3 2697 788.5 Q 2694.5 790 2696 795.5 L 2691 807.5 L 2687 823.5 L 2678 841.5 L 2677 872.5 L 2679 878.5 L 2679 900.5 L 2680 901.5 L 2680 910.5 L 2682 913.5 L 2683 926.5 L 2680.5 930 L 2675.5 933 L 2670.5 933 L 2665 926.5 L 2663 916.5 L 2662 869.5 L 2660 859 Q 2657.9 857.4 2652.5 858 L 2645 854 Q 2641.9 846.5 2635 841.5 L 2629 830.5 L 2626 818.5 L 2621 812.5 L 2620 804.5 L 2623.5 799 L 2631.5 798 L 2638 802.5 L 2644 825.5 Q 2646.5 833.5 2652.5 838 L 2660.5 838 L 2662 836.5 L 2672 817.5 L 2674 807.5 L 2679 793.5 L 2680 777.5 L 2684.5 773 L 2689.5 771 Z "></path><path d="M 1089.5 772 L 1106.5 772 L 1128.5 777 L 1139.5 782 L 1147 789.5 Q 1150 792.5 1149 799.5 L 1144 811.5 L 1141.5 814 L 1138 816.5 L 1133.5 822 L 1128 825 Q 1125.9 828.4 1127 836 L 1149.5 836 Q 1152.8 838.7 1159.5 838 L 1165 842.5 Q 1166.1 850.1 1162.5 853 Q 1157.8 856.8 1147.5 855 L 1146.5 854 L 1136.5 854 L 1135.5 853 L 1108 853 Q 1109.3 862.9 1104.5 868 Q 1101 870.5 1093.5 869 L 1088 864.5 L 1076 825.5 L 1075 810.5 L 1072 802.5 L 1072 793.5 L 1070.5 792 L 1064 787.5 Q 1061.3 785.2 1062 779.5 L 1065.5 776 L 1070.5 774 Q 1077.6 771.6 1088.5 773 L 1089.5 772 Z M 1097 788 L 1095 790 L 1095 799 L 1096 800 Q 1097 806 1094 810 Q 1093 818 1095 823 L 1104 823 L 1119 811 L 1126 804 L 1126 795 L 1113 789 L 1097 788 Z "></path><path d="M 1353.5 778 Q 1369.3 775.3 1374 783.5 Q 1373.9 789.9 1369.5 792 L 1357.5 793 L 1345 797 L 1345 805.5 L 1347.5 806 L 1369.5 812 L 1384.5 820 L 1396 829.5 L 1402 840.5 L 1402 848.5 L 1395.5 859 Q 1388 865.5 1377.5 869 L 1358.5 870 Q 1348.3 868.3 1343 861.5 Q 1339 855.5 1338 846.5 L 1340.5 844 L 1353.5 844 L 1361.5 853 Q 1375.2 854.6 1380 847.5 Q 1381.8 837.8 1376.5 835 L 1361.5 827 L 1350.5 823 L 1322.5 817 L 1308.5 817 L 1299 811.5 L 1298 804.5 L 1301.5 799 Q 1313.4 796.4 1321.5 790 L 1324.5 790 L 1341.5 781 L 1353.5 778 Z "></path><path d="M 1832.5 786 Q 1841.5 785 1845 789.5 L 1846 792.5 L 1846 808.5 L 1847 809.5 L 1847 825.5 L 1846 826.5 L 1845 844.5 L 1843 853.5 L 1836 867.5 L 1828.5 878 L 1825 880.5 L 1822.5 884 Q 1816.6 890.1 1804.5 890 L 1794.5 888 L 1784 882 L 1774 861.5 L 1772 850.5 L 1770 846.5 L 1768 810.5 Q 1765 806.5 1766 798.5 L 1769.5 795 L 1782.5 795 L 1786 799.5 Q 1784.5 805 1787 806.5 L 1787 841.5 L 1789 852.5 L 1794 864.5 L 1800.5 871 L 1810.5 871 L 1819 862.5 L 1828 840.5 Q 1826.5 835 1829 833.5 L 1829 804.5 L 1825 794.5 L 1829.5 788 L 1832.5 786 Z "></path><path d="M 2009.5 790 Q 2018.4 788.6 2022 792.5 Q 2024.8 795.2 2024 801.5 L 2015 819.5 L 2010 841.5 L 2008 845.5 L 2008 854.5 L 2006 863.5 L 2006 891.5 L 2007 896.5 L 2003.5 902 L 1998.5 904 L 1993.5 904 L 1984 898.5 L 1975 878.5 L 1964 859.5 L 1952 821.5 L 1944 809.5 L 1944 804.5 L 1946 800 L 1952.5 798 L 1957.5 798 L 1961.5 799 L 1965 802.5 L 1967 806.5 L 1972 830.5 L 1977 840.5 L 1978 847.5 L 1981.5 853 L 1990 853 L 1990 846.5 L 1996 818.5 L 2001 808.5 L 2005 795.5 L 2009.5 790 Z "></path><path d="M 2444.5 808 L 2453.5 808 L 2454 809.5 L 2457 816.5 L 2457 820.5 L 2453 828.5 L 2453 832.5 L 2447 847.5 L 2446 863.5 L 2460 884.5 L 2467.5 893 L 2473 895.5 Q 2474.5 904.5 2469.5 907 Q 2466.8 909.8 2460.5 909 L 2453 902.5 L 2441.5 885 L 2432.5 885 L 2432 887.5 L 2424 901.5 L 2416.5 910 L 2410.5 912 L 2404.5 912 L 2401 909.5 L 2400 903.5 L 2403.5 899 L 2409 895.5 L 2423 868.5 Q 2425.3 863.8 2424 855.5 L 2407.5 829 L 2400 823.5 L 2399 817.5 L 2403.5 811 L 2409.5 809 L 2415 812.5 L 2427.5 830 L 2435.5 830 L 2436 827.5 L 2439 813.5 L 2441.5 810 L 2444.5 808 Z "></path><path d="M 2248.5 810 L 2255 811 L 2261 822.5 L 2261 856.5 L 2259 866.5 L 2258 886.5 L 2255 897.5 L 2251.5 903 Q 2247 907.5 2236.5 906 L 2225 898.5 L 2223.5 896 Q 2215.2 893.9 2211 887.5 L 2200.5 872 L 2192.5 872 L 2191 873.5 L 2185 897.5 L 2178.5 907 Q 2175.3 910.8 2167.5 910 L 2160 898.5 Q 2160.5 891 2157 887.5 L 2155 866.5 L 2152 854.5 L 2152 847.5 L 2153 846.5 L 2153 832.5 L 2157.5 826 Q 2162.8 824.8 2164 827.5 L 2166 834.5 L 2166 851.5 L 2167 852.5 L 2167 865.5 L 2168 872 L 2177 872 L 2177 867.5 L 2182 847.5 L 2182 839.5 L 2188.5 830 L 2193.5 829 L 2201 834.5 L 2214 866.5 L 2226.5 882 Q 2231.3 886.5 2241 885 L 2242 874.5 L 2244 869.5 L 2245 820.5 L 2244 815.5 L 2248.5 810 Z "></path><path d="M 2870.5 818 L 2892.5 819 L 2897.5 821 L 2907.5 822 Q 2918.7 825.3 2926 832.5 Q 2930.5 839 2929 851.5 Q 2915.9 875.4 2896.5 893 L 2877 910.5 L 2877 919 L 2886.5 919 L 2887.5 918 L 2894.5 918 L 2906.5 915 L 2915.5 915 L 2922.5 913 L 2950.5 912 L 2951.5 911 L 2955.5 912 L 2960 915.5 L 2961 924.5 L 2953.5 930 L 2918.5 930 L 2866.5 940 L 2845.5 941 L 2838 938 L 2834 930.5 L 2839.5 923 L 2876.5 889 L 2878 889 L 2878 887.5 L 2904 859.5 L 2910 849.5 L 2910 841.5 L 2899.5 837 L 2864.5 836 L 2863.5 837 L 2852.5 838 L 2839.5 843 L 2834.5 843 L 2831 840.5 L 2827 834.5 L 2827 831.5 L 2832.5 825 L 2837.5 823 L 2842.5 823 L 2859.5 819 L 2869.5 819 L 2870.5 818 Z "></path><path d="M 541.5 1223 Q 550.5 1223.5 555 1228.5 L 557 1234.5 L 558 1246.5 L 561 1252.5 L 562 1262 L 570.5 1262 L 576.5 1258 L 590.5 1258 L 603.5 1262 L 610 1266.5 L 613.5 1271 Q 615.8 1270.3 615 1272.5 L 621 1281.5 L 623 1290.5 L 625 1293.5 L 625 1304.5 Q 622.4 1307.4 623 1313.5 Q 617.9 1317.9 617 1326.5 L 610.5 1333 L 602.5 1338 L 589.5 1340 L 585.5 1339 L 577.5 1331 Q 565.2 1332.3 561 1325.5 L 559 1318.5 L 558 1305.5 L 550 1282.5 L 539 1240.5 L 537 1237.5 L 536 1226.5 L 541.5 1223 Z M 586 1276 Q 580 1280 578 1288 L 578 1301 L 584 1315 Q 586 1320 597 1318 L 600 1315 L 605 1302 L 605 1288 L 603 1284 L 594 1276 L 586 1276 Z "></path><path d="M 1018.5 1240 Q 1025.8 1239.7 1029 1243.5 L 1032 1254.5 L 1032 1266.5 L 1036 1283.5 L 1049 1312.5 L 1049 1316.5 L 1045.5 1321 Q 1042.2 1324.2 1034.5 1323 L 1014.5 1299 L 1001.5 1291 L 993.5 1291 L 990 1293.5 Q 987.6 1298.6 989 1307.5 L 997 1327.5 L 1003.5 1334 Q 1011.1 1339.9 1026.5 1338 L 1035.5 1334 L 1044.5 1332 L 1050 1335.5 L 1050 1340.5 L 1043.5 1349 L 1033.5 1354 L 1028.5 1355 L 1013.5 1355 L 998.5 1350 L 986 1338.5 L 974 1316.5 L 969 1290.5 Q 970.4 1282.4 976.5 1279 L 983.5 1275 L 999.5 1274 L 1007.5 1277 L 1016 1277 L 1016 1267.5 L 1011 1246.5 L 1014.5 1241 L 1018.5 1240 Z "></path><path d="M 1550.5 1246 L 1565.5 1247 L 1588 1257 L 1590.5 1261 L 1593 1262.5 L 1594 1266.5 L 1593 1270.5 L 1590.5 1273 L 1582.5 1275 L 1568.5 1267 L 1550.5 1266 L 1542 1272.5 L 1541 1274.5 L 1541 1289.5 Q 1544 1294.5 1543 1303.5 L 1549 1318 Q 1553.9 1320.9 1563.5 1320 L 1564.5 1319 L 1579.5 1318 Q 1580.7 1320.3 1585.5 1319 L 1588 1321.5 Q 1589.5 1330.5 1583.5 1332 L 1567.5 1337 L 1563 1337 L 1563 1345.5 L 1568 1354.5 L 1568 1359.5 L 1562.5 1369 L 1554.5 1371 L 1546.5 1367 L 1543 1363.5 Q 1542 1357.5 1546 1356.5 L 1546 1348.5 L 1540.5 1340 L 1521.5 1341 L 1514.5 1343 L 1503.5 1343 L 1498 1340 L 1495 1333.5 L 1495 1327.5 L 1499.5 1324 L 1530 1322 L 1530 1313.5 L 1527 1305.5 L 1527 1299.5 L 1525 1295.5 L 1525 1289.5 L 1522 1282.5 L 1522 1278.5 L 1525 1263.5 L 1535.5 1251 L 1550.5 1246 Z "></path><path d="M 265.5 1254 L 278.5 1255 L 291 1261 L 297.5 1269 Q 304.6 1269.9 308 1274.5 L 313 1288.5 Q 321.4 1302.6 333.5 1313 L 342.5 1317 L 345.5 1317 L 349 1319.5 L 350 1325.5 L 344.5 1332 L 338.5 1333 Q 321.3 1327.6 310.5 1316 L 301.5 1316 L 292.5 1328 L 279.5 1334 L 272.5 1334 L 257 1323.5 L 251.5 1315 Q 248.9 1315.8 250 1312.5 L 247 1304.5 L 245 1285.5 L 247 1281.5 Q 247 1272 250 1265.5 L 256.5 1258 L 265.5 1254 Z M 269 1278 L 266 1283 L 266 1301 L 269 1309 L 271 1310 L 281 1310 L 285 1302 L 285 1290 L 277 1280 L 277 1278 L 269 1278 Z "></path><path d="M 781.5 1259 Q 794.2 1258.3 799 1265.5 L 801 1272.5 L 796 1279 L 790 1283.5 L 786 1292.5 L 786 1298.5 L 784 1304.5 L 784 1319.5 L 794.5 1332 L 804.5 1335 L 816.5 1335 Q 820.6 1331.1 829.5 1332 L 834 1336.5 L 834 1339.5 L 829.5 1346 L 817.5 1352 L 801.5 1352 Q 781.3 1346.7 771 1331.5 L 765 1319.5 L 765 1305.5 L 766 1304.5 L 766 1289.5 Q 768.6 1288.1 768 1283.5 L 776 1264.5 L 781.5 1259 Z "></path><path d="M 2462.5 1267 L 2471.5 1268 L 2483 1275.5 L 2484 1281.5 L 2479.5 1287 L 2463.5 1285 L 2459 1281.5 Q 2456.4 1278.6 2457 1272.5 L 2460.5 1268 L 2462.5 1267 Z "></path><path d="M 2277.5 1268 L 2290.5 1269 L 2294 1271.5 L 2297 1278.5 L 2292.5 1285 Q 2287.4 1287.4 2278.5 1286 L 2271 1281.5 Q 2268.3 1279.2 2269 1273.5 L 2272.5 1269 L 2277.5 1268 Z "></path><path d="M 2664.5 1277 Q 2672.5 1276 2675 1280.5 L 2677 1300.5 L 2680 1308.5 L 2680 1315.5 L 2683 1325.5 L 2683 1333 L 2691.5 1333 L 2692 1331.5 L 2698 1325.5 L 2709.5 1306 Q 2712.8 1303.3 2719.5 1304 L 2726 1310.5 L 2727 1318.5 L 2724.5 1322 L 2719 1325.5 L 2714 1334.5 L 2702 1348.5 L 2702 1357 L 2725.5 1356 L 2738.5 1353 L 2750.5 1352 L 2755 1356.5 L 2755 1361.5 L 2749.5 1368 L 2738.5 1372 L 2725.5 1373 L 2718.5 1375 L 2695.5 1375 L 2692 1377.5 Q 2691.9 1383.9 2687.5 1386 L 2681.5 1387 L 2677 1384.5 L 2677 1375.5 L 2672 1357.5 L 2672 1351.5 L 2670 1347.5 L 2668 1329.5 L 2666 1325.5 L 2666 1318.5 L 2662 1305.5 L 2662 1297.5 L 2656 1282.5 L 2658.5 1279 L 2664.5 1277 Z "></path><path d="M 1273.5 1283 L 1287.5 1286 L 1296.5 1290 L 1310 1301.5 L 1311 1305.5 L 1305.5 1315 Q 1299.1 1318.6 1289.5 1319 L 1286.5 1321 L 1274.5 1324 L 1269.5 1324 L 1266 1326.5 Q 1264.6 1337.4 1268 1343.5 L 1274.5 1351 Q 1281 1355.9 1294.5 1354 L 1308.5 1351 L 1313 1354.5 L 1314 1358.5 L 1309.5 1365 L 1296.5 1370 L 1283.5 1370 L 1267.5 1365 L 1254 1352.5 L 1249 1341.5 L 1247 1331.5 L 1239 1318.5 L 1239 1312.5 L 1240 1310 L 1247 1307.5 Q 1248.5 1296.5 1255.5 1291 L 1267.5 1284 Q 1272.2 1285.3 1273.5 1283 Z "></path><path d="M 2888.5 1284 Q 2898.9 1282.6 2901 1289.5 L 2904 1296.5 L 2904 1308.5 L 2906 1312.5 L 2907 1330.5 L 2911 1346.5 L 2911 1358.5 Q 2913.8 1361.2 2913 1367.5 L 2916 1374.5 L 2925 1385.5 L 2926 1395.5 L 2925 1398 L 2918.5 1401 L 2912.5 1401 L 2908 1398.5 L 2903 1388.5 L 2902 1379.5 L 2897 1366.5 L 2896 1351.5 L 2892 1335.5 L 2892 1326.5 L 2889 1316.5 L 2888 1304.5 L 2884 1295.5 L 2884 1287.5 L 2888.5 1284 Z "></path><path d="M 2033.5 1287 Q 2043.9 1285.6 2047 1291.5 L 2048 1307.5 L 2050 1310.5 L 2050 1320 L 2058.5 1320 L 2059 1317.5 L 2071.5 1300 L 2081.5 1293 L 2087.5 1291 L 2092.5 1291 L 2103.5 1296 L 2106 1298.5 Q 2110.6 1303.9 2111 1313.5 L 2116 1323.5 Q 2116 1330.5 2119 1334.5 L 2120 1347.5 L 2125 1364.5 L 2124 1368.5 L 2121.5 1371 L 2112.5 1372 L 2109 1369.5 L 2105 1354.5 L 2105 1344.5 L 2101 1332.5 L 2100 1323.5 Q 2097.2 1321.8 2098 1316.5 L 2094.5 1312 L 2086.5 1312 L 2078 1319.5 L 2072 1331.5 L 2066 1338.5 Q 2065.3 1347.3 2061 1352.5 L 2060 1367.5 L 2059 1370 L 2053.5 1373 L 2045.5 1373 L 2039 1366.5 L 2039 1343.5 L 2037 1339.5 L 2037 1326.5 L 2035 1324.5 L 2034 1307.5 L 2031 1302.5 L 2030 1291.5 L 2033.5 1287 Z "></path><path d="M 2284.5 1310 L 2291.5 1310 L 2299 1316.5 L 2301 1330.5 L 2308 1352.5 Q 2306.8 1358.3 2302.5 1361 L 2297.5 1361 L 2291 1356.5 L 2286 1339.5 L 2285 1326.5 L 2281 1321.5 L 2281 1313.5 L 2282 1311 L 2284.5 1310 Z "></path><path d="M 1811.5 1318 L 1822.5 1318 L 1823.5 1319 L 1835.5 1320 L 1852 1329 L 1855.5 1335 Q 1857.8 1334.3 1857 1336.5 L 1863 1346.5 L 1864 1353.5 L 1863 1354.5 L 1863 1369.5 L 1864 1370.5 L 1864 1382.5 L 1867.5 1386 L 1881.5 1387 L 1886 1391.5 L 1886 1395.5 L 1880.5 1401 Q 1871.1 1401.1 1867 1406.5 L 1867 1460.5 L 1864 1469.5 L 1864 1474.5 L 1855.5 1487 Q 1851.2 1493.2 1840.5 1493 Q 1825.4 1490.6 1819 1479.5 L 1813 1465.5 L 1811 1454.5 L 1811 1439.5 L 1818 1419.5 L 1828.5 1406 L 1847 1392.5 L 1847 1384 L 1835.5 1384 L 1829.5 1386 Q 1814.4 1383.6 1806 1374.5 L 1801 1366.5 L 1800 1359.5 L 1796 1354.5 L 1796 1342.5 L 1797 1341.5 L 1797 1331.5 L 1802.5 1322 L 1811.5 1318 Z M 1820 1338 L 1817 1339 L 1814 1342 L 1813 1347 Q 1812 1356 1815 1361 Q 1818 1370 1834 1367 L 1838 1361 L 1838 1353 L 1839 1352 Q 1840 1343 1838 1340 Q 1832 1336 1820 1338 Z M 1842 1419 Q 1831 1427 1828 1444 L 1828 1460 L 1831 1471 L 1835 1474 L 1845 1474 L 1848 1470 L 1849 1456 L 1851 1449 L 1851 1420 L 1851 1419 L 1842 1419 Z "></path><path d="M 2481 1322 Q 2493 1320.1 2497 1327.5 L 2503 1340.5 L 2503 1345.5 L 2506 1351.5 L 2513 1375.5 Q 2511.5 1381 2514 1382.5 L 2514 1405.5 L 2509.5 1415 L 2504.5 1418 L 2497.5 1418 L 2493 1414.5 Q 2487.3 1409.3 2487 1400 Q 2493.8 1399.5 2497 1394.5 L 2497 1381.5 L 2493 1367.5 L 2493 1361.5 L 2486 1344.5 L 2480 1335.5 L 2479 1327.5 L 2481 1322 Z "></path><path d="M 3131.5 1328 L 3138.5 1329 L 3146 1335.5 L 3151 1353.5 L 3154 1377.5 L 3157 1392.5 L 3161 1401.5 L 3161 1406.5 Q 3158.6 1412.1 3150.5 1412 L 3143 1402.5 L 3141 1391.5 L 3141 1383.5 L 3139 1379.5 L 3139 1371.5 L 3136 1361 L 3127.5 1361 L 3126 1362.5 L 3120 1378.5 L 3119 1388.5 L 3113.5 1400 L 3105.5 1401 L 3100 1397.5 L 3096 1390.5 Q 3093.7 1383.8 3095 1373.5 L 3091 1364 L 3082 1364 L 3082 1369.5 L 3079 1377.5 L 3078 1395.5 L 3074.5 1403 L 3067.5 1404 L 3061 1398.5 L 3059 1392.5 L 3058 1378.5 L 3056 1373.5 L 3056 1363.5 L 3051 1346.5 L 3051 1340.5 L 3057.5 1336 L 3060.5 1336 L 3061.5 1337 L 3073.5 1337 L 3077.5 1332 Q 3080.2 1329.2 3086.5 1330 L 3096 1335.5 L 3103.5 1353 L 3111.5 1353 L 3112 1351.5 L 3116 1346.5 L 3121 1335.5 L 3124.5 1332 L 3131.5 1328 Z "></path><path d="M 3328.5 1330 Q 3339.3 1329.3 3343 1335.5 L 3352 1354.5 L 3358 1380.5 Q 3361.4 1393.6 3368 1403.5 L 3368 1410.5 L 3365 1416 Q 3362.9 1417.6 3357.5 1417 L 3355 1416 L 3350 1408.5 Q 3347 1402 3347 1392.5 L 3343 1385.5 L 3340 1368.5 L 3335.5 1359 L 3327.5 1359 L 3327 1360.5 L 3318 1377.5 L 3317 1383.5 L 3312 1395.5 L 3312 1401.5 L 3307.5 1408 L 3298.5 1409 L 3292 1400.5 L 3290 1391.5 L 3289 1372.5 L 3286 1362.5 L 3283 1358.5 L 3282 1348.5 L 3286.5 1343 L 3290.5 1342 Q 3297 1343.5 3300 1348.5 L 3301 1353 L 3309.5 1353 L 3310 1351.5 L 3320 1336.5 L 3325.5 1331 L 3328.5 1330 Z "></path><path d="M 3518.5 1332 Q 3533.1 1329.9 3537 1338.5 L 3538 1340.5 L 3539 1358.5 L 3541 1362.5 L 3541 1387.5 L 3538 1397.5 L 3526.5 1410 Q 3521.5 1414 3512.5 1414 L 3500.5 1411 L 3493 1403.5 L 3487 1388.5 L 3487 1381.5 L 3488 1380.5 L 3488 1371.5 L 3491 1363.5 L 3491 1358.5 L 3503 1339 L 3510.5 1334 L 3518.5 1332 Z M 3515 1358 L 3507 1369 L 3504 1382 Q 3503 1390 3505 1393 L 3516 1393 L 3520 1390 L 3523 1386 Q 3522 1380 3525 1379 L 3525 1362 L 3524 1360 L 3523 1358 L 3515 1358 Z "></path><path d="M 3706.5 1333 L 3717.5 1335 L 3727 1343.5 Q 3730.8 1352.2 3729 1366.5 Q 3722.6 1395.6 3702.5 1411 L 3697.5 1414 L 3686 1414 L 3686 1423.5 L 3689 1430.5 L 3693 1450.5 L 3693 1465.5 Q 3691.5 1472 3686.5 1475 Q 3674.3 1477.3 3671 1470.5 L 3664 1459.5 Q 3663.5 1451 3659 1446.5 L 3656 1417.5 L 3658 1410.5 L 3658 1399.5 L 3659 1398.5 L 3659 1378.5 Q 3668 1370 3673 1357.5 L 3686.5 1343 Q 3694.4 1335.9 3706.5 1333 Z M 3703 1353 L 3696 1358 L 3684 1371 L 3681 1377 L 3681 1385 Q 3685 1391 3698 1389 Q 3705 1382 3709 1372 L 3712 1363 L 3712 1355 L 3711 1353 L 3703 1353 Z "></path><path d="M 3901.5 1342 L 3904.5 1342 L 3910 1345 L 3913 1350.5 L 3913 1354.5 L 3911 1362.5 L 3897 1388.5 L 3896 1403 L 3904 1408 L 3910 1423.5 L 3910 1431.5 L 3912 1439.5 L 3912 1449.5 L 3911 1450.5 L 3910 1471.5 L 3905 1489.5 L 3898 1505.5 L 3890.5 1514 L 3882.5 1517 L 3875.5 1517 L 3867 1510.5 L 3864 1505.5 L 3862 1495.5 L 3862 1487.5 L 3861 1486.5 L 3861 1459.5 L 3862 1458.5 L 3862 1449.5 Q 3865.1 1444.1 3865 1435.5 L 3869 1422.5 L 3869 1413 Q 3858 1414.8 3855 1407.5 Q 3850.1 1399.9 3850 1387.5 L 3856 1372.5 L 3869.5 1355 L 3882.5 1346 L 3893.5 1345 L 3901.5 1342 Z M 3884 1428 L 3879 1446 L 3879 1452 L 3877 1458 L 3877 1490 L 3879 1491 L 3887 1491 L 3892 1479 L 3894 1464 L 3896 1458 L 3896 1437 L 3894 1430 L 3894 1428 L 3884 1428 Z "></path><path d="M 700.5 1573 L 707 1574 L 710 1583.5 Q 709.3 1590.2 712 1593.5 L 712 1600.5 L 715 1610.5 L 715 1619.5 L 717 1626 L 728.5 1626 L 741.5 1620 L 744 1617.5 L 747 1607 L 753.5 1605 Q 754.8 1607.3 759.5 1606 L 764 1609.5 L 767 1613.5 L 767 1617.5 L 762.5 1626 L 754.5 1632 L 722 1646.5 L 723 1671.5 L 716.5 1680 L 704.5 1681 L 700 1679 L 699 1672.5 L 703 1667.5 L 703 1654.5 L 699.5 1647 L 688.5 1646 L 684.5 1644 L 678.5 1644 Q 676.2 1641.3 670.5 1642 L 659 1633.5 Q 659.7 1627.2 664.5 1625 L 677.5 1623 Q 683.1 1628.7 695 1627 L 695 1612.5 Q 690.2 1604.3 690 1591.5 L 685 1581.5 L 689.5 1575 L 700.5 1573 Z "></path><path d="M 270.5 1583 Q 280.8 1580.8 283 1586.5 L 283 1590.5 L 275.5 1598 L 272.5 1599 L 255 1614.5 L 248 1623.5 L 245 1631.5 Q 242.6 1638.6 244 1649.5 L 249 1662.5 Q 247.7 1669.3 250 1672.5 Q 248.6 1680 243.5 1684 L 234.5 1685 L 227 1680.5 L 226 1678.5 L 226 1666.5 L 224 1661.5 L 223 1650.5 L 219 1635.5 L 219 1628.5 L 214 1616.5 L 214 1610.5 L 215 1608 L 226.5 1602 L 229.5 1602 L 230.5 1603 L 240.5 1603 L 250.5 1594 L 270.5 1583 Z "></path><path d="M 456.5 1602 Q 467.7 1599.8 471 1605.5 L 472 1610.5 L 467.5 1618 Q 456.8 1621.3 451 1629.5 L 451 1638 L 454.5 1638 L 477.5 1648 L 490 1657.5 Q 493.5 1661.5 492 1670.5 Q 485.8 1681.3 476.5 1689 Q 470 1689.5 466.5 1693 L 451.5 1694 L 440.5 1690 L 436 1686.5 Q 432.3 1684.2 433 1677.5 Q 434 1674 439.5 1675 L 440.5 1676 L 461.5 1676 L 466 1672.5 L 466 1663.5 L 464.5 1663 L 449.5 1654 L 427.5 1653 L 415 1645.5 Q 415.4 1636.4 421.5 1633 Q 438.3 1620.8 451.5 1605 L 456.5 1602 Z "></path><path d="M 994.5 1607 L 998.5 1607 L 1006 1612.5 Q 1009.5 1619 1008 1630.5 L 1012 1643.5 L 1021.5 1657 L 1030.5 1662 Q 1040.9 1660.6 1045 1665.5 Q 1046.1 1673.1 1041.5 1675 L 1037.5 1677 L 1022.5 1677 Q 1012.4 1674.6 1006.5 1668 L 997 1668 L 995 1673.5 L 991.5 1677 L 982.5 1684 L 968.5 1684 L 962 1679.5 Q 954.4 1672.1 951 1660.5 Q 951.6 1654.4 949 1651.5 L 949 1644.5 L 945 1629.5 L 945 1622.5 L 950.5 1616 Q 953.7 1613.7 960.5 1615 L 966 1620.5 L 966 1631.5 Q 969.6 1636.9 968 1647.5 L 972 1660 L 980.5 1660 L 981 1658.5 L 985 1645.5 L 985 1632.5 L 984 1631.5 L 984 1614.5 L 987.5 1610 L 994.5 1607 Z "></path><path d="M 1286.5 1634 Q 1296.6 1632.4 1300 1637.5 L 1299 1653.5 L 1295 1666.5 L 1295 1670.5 L 1290 1682.5 L 1289 1691.5 L 1284 1701.5 L 1283 1710.5 L 1279.5 1715 L 1269.5 1718 L 1262 1713.5 L 1258.5 1709 Q 1256.3 1709.8 1257 1707.5 Q 1242.8 1688.2 1233 1664.5 L 1224 1652.5 L 1224 1647.5 Q 1226.7 1640.2 1238.5 1642 L 1246 1646.5 L 1247 1651.5 L 1252 1658.5 L 1262 1681 L 1271.5 1681 L 1272 1678.5 L 1277 1665.5 L 1280 1650.5 L 1284 1641.5 L 1284 1636.5 L 1286.5 1634 Z "></path><path d="M 1802.5 1650 Q 1806 1652.5 1813.5 1651 L 1816 1652 L 1818 1655.5 L 1818 1661.5 L 1812 1672.5 Q 1811.3 1681.3 1807 1686.5 L 1804 1695.5 L 1804 1703.5 L 1810.5 1711 L 1817.5 1716 L 1821.5 1717 L 1827 1722.5 L 1827 1725.5 L 1822.5 1730 Q 1820.2 1732.7 1814.5 1732 L 1801.5 1726 L 1798.5 1723 L 1790.5 1723 L 1786.5 1728 Q 1783 1731.5 1775.5 1731 L 1768 1729 L 1768 1725.5 L 1779 1712.5 L 1779 1702.5 L 1764 1677.5 L 1758.5 1672 L 1752 1667.5 L 1751 1660.5 L 1755.5 1655 L 1767.5 1655 L 1770 1656 L 1784.5 1676 L 1792.5 1676 L 1793 1674.5 L 1796 1663.5 L 1796 1658.5 L 1800.5 1651 L 1802.5 1650 Z "></path><path d="M 1570.5 1655 L 1581 1658 Q 1584.6 1662.5 1583 1673.5 L 1582 1674.5 L 1581 1687.5 Q 1576.3 1694.3 1576 1705.5 L 1572 1715.5 L 1568.5 1720 L 1560.5 1723 L 1556.5 1723 L 1551.5 1721 Q 1545.5 1711.5 1535 1706.5 L 1531.5 1700 L 1523.5 1700 L 1523 1702.5 L 1518 1716.5 L 1508.5 1729 L 1499.5 1733 L 1495.5 1732 L 1492 1728.5 L 1484 1709.5 L 1482 1699.5 L 1478 1689.5 L 1477 1680.5 L 1472 1669.5 L 1476.5 1663 L 1483.5 1661 L 1489.5 1661 L 1495 1665.5 L 1496 1667.5 L 1496 1679.5 L 1499 1690 L 1507.5 1690 L 1508 1688.5 L 1515 1668 L 1521.5 1665 L 1529.5 1665 L 1536 1668.5 L 1544 1685.5 L 1550.5 1695 L 1558.5 1695 L 1560 1693.5 L 1568 1665.5 L 1568 1659.5 L 1570.5 1655 Z "></path><path d="M 2242.5 1660 L 2262.5 1660 L 2263.5 1661 L 2275.5 1661 L 2276.5 1662 L 2289.5 1662 L 2303.5 1666 L 2307 1669.5 L 2307 1675.5 L 2299.5 1685 L 2297 1686.5 Q 2292.3 1696.8 2283.5 1703 L 2272 1713.5 L 2272 1722 L 2283.5 1722 L 2321.5 1715 L 2331 1719.5 Q 2331.6 1726.1 2327.5 1728 L 2321.5 1731 L 2312.5 1733 L 2291.5 1734 L 2288.5 1736 L 2274.5 1739 L 2262.5 1739 Q 2260.2 1741.7 2254.5 1741 L 2249.5 1740 L 2239 1733.5 L 2236 1727.5 L 2236 1723.5 L 2247 1714.5 L 2251.5 1709 L 2263 1700.5 L 2269.5 1693 Q 2271.8 1693.8 2271 1691.5 L 2277 1687 Q 2279.1 1683.6 2278 1676 L 2273.5 1675 L 2244.5 1674 L 2223.5 1678 L 2214.5 1678 L 2208 1673.5 L 2207 1665.5 L 2213.5 1662 L 2241.5 1661 L 2242.5 1660 Z "></path><path d="M 2056.5 1669 L 2065.5 1670 L 2069 1673.5 L 2073 1681.5 L 2073 1688.5 L 2076 1695.5 L 2076 1702.5 Q 2079.3 1706.2 2078 1714.5 L 2080 1717.5 L 2082 1736.5 L 2084.5 1741 L 2092.5 1741 L 2104.5 1734 L 2107.5 1734 L 2117 1737.5 Q 2116.4 1743.9 2111.5 1746 L 2098 1755.5 L 2095.5 1759 L 2092 1761.5 L 2092 1773.5 L 2094 1777.5 L 2098 1797.5 L 2098 1815.5 L 2093 1826.5 L 2089.5 1830 L 2084.5 1832 L 2070.5 1833 L 2059 1824.5 Q 2054.3 1820.7 2053 1813.5 L 2053 1795.5 Q 2056.9 1774.4 2069 1761.5 L 2069 1751.5 L 2061 1715 L 2052.5 1715 L 2052 1716.5 L 2042.5 1727 L 2036.5 1730 L 2029.5 1730 L 2018 1725 L 2010 1714.5 L 2003 1693.5 L 2002 1681.5 L 2005 1676 Q 2008.3 1673.9 2016.5 1675 L 2019 1676 L 2022 1680.5 L 2022 1692.5 L 2024 1700.5 L 2028.5 1707 L 2036.5 1707 L 2041 1704 Q 2042.8 1701.6 2042 1695.5 L 2048 1681.5 L 2048 1677.5 L 2054.5 1670 L 2056.5 1669 Z "></path><path d="M 0.5 1976 L 2 1977.5 L 2 1987.5 L 3 1988.5 L 3 2014.5 L 4 2015.5 L 4 2039.5 L 5 2040.5 L 5 2070.5 L 6 2071.5 L 6 2094.5 L 7 2095.5 L 7 2113.5 L 8 2114.5 L 8 2153.5 L 9 2154.5 L 10 2199.5 L 11 2200.5 L 12 2324.5 L 13 2325.5 L 13 2414.5 L 14 2415.5 L 14 2503.5 L 15 2504.5 L 15 2632.5 L 16 2633.5 L 17 2801.5 L 18 2802.5 L 18 2838.5 L 19 2839.5 L 19 2902.5 L 20 2903.5 L 20 2939.5 L 21 2940.5 L 21 2987.5 L 22 2988.5 L 22 3004.5 L 23 3005.5 Q 21.8 3017.3 24 3024 L 0.5 3024 L 0 3023.5 L 0.5 1976 Z "></path><path d="M 461.5 2080 Q 470.9 2078.6 474 2083.5 L 476 2089.5 L 476 2109.5 L 478 2118.5 L 479 2134.5 L 481 2141.5 L 481 2152.5 L 487 2171.5 L 489 2184.5 L 484.5 2191 L 474.5 2192 L 468 2186.5 L 466 2182.5 L 466 2172.5 L 462 2158.5 L 461 2138.5 L 459 2129.5 L 459 2112.5 L 457 2106.5 L 457 2097.5 L 456 2096.5 L 455 2085.5 L 458.5 2081 L 461.5 2080 Z "></path><path d="M 288.5 2082 Q 302.5 2080.5 306 2089.5 L 312 2098.5 L 317 2115.5 L 320 2119.5 L 320 2125.5 L 323 2132.5 L 324 2142.5 L 329 2161.5 L 329 2172.5 L 325 2180.5 L 318.5 2188 L 310.5 2192 L 295.5 2193 Q 285.9 2190.1 280 2183.5 Q 274 2178.5 272 2169.5 L 270 2160.5 L 269 2138.5 L 268 2137.5 L 269 2136.5 L 269 2112.5 L 272 2097.5 Q 275.3 2089.8 281.5 2085 L 288.5 2082 Z M 288 2110 L 287 2115 L 287 2153 L 291 2169 L 294 2174 L 296 2175 L 304 2175 L 309 2168 L 309 2152 L 308 2147 L 306 2143 L 305 2134 L 297 2113 L 297 2110 L 288 2110 Z "></path><path d="M 731.5 2084 L 742.5 2084 L 752 2090.5 L 758 2106.5 Q 756.5 2115.5 760 2119.5 L 760 2129.5 L 762 2133.5 L 762 2146.5 L 761 2147.5 L 761 2156.5 L 767 2162.5 L 767 2168.5 L 764.5 2173 L 758.5 2175 L 756 2177.5 L 752 2187.5 L 741.5 2201 Q 733.5 2209 722.5 2214 L 708.5 2216 L 699 2211.5 L 696 2203.5 L 696 2193.5 L 703 2178.5 L 712.5 2169 L 722.5 2162 L 736.5 2157 L 741 2153.5 L 742 2149.5 L 742 2125.5 L 738 2106 L 729.5 2106 L 729 2107.5 L 721 2119.5 L 720 2131.5 L 717.5 2134 L 711.5 2137 L 704.5 2137 L 698 2130.5 L 697 2121.5 L 699 2117.5 L 699 2100.5 L 698 2097.5 L 701.5 2094 L 713.5 2094 L 723.5 2087 L 731.5 2084 Z "></path><path d="M 935.5 2095 L 955.5 2095 L 961 2098.5 L 968 2108.5 L 969 2118.5 L 968 2119.5 L 968 2130.5 L 966 2134.5 L 966 2144 Q 975.6 2146.1 982 2152.5 L 987 2163.5 L 987 2167.5 L 986 2168.5 L 985 2179.5 L 978 2192.5 L 970.5 2201 L 962.5 2206 L 957.5 2207 L 947.5 2205 L 944 2201.5 L 938 2188.5 L 939 2186 L 944.5 2185 Q 947.7 2188.8 956.5 2187 Q 963.1 2182.6 966 2174.5 L 966 2163.5 L 958.5 2158 L 935.5 2158 L 930 2154.5 L 928 2148.5 L 933.5 2141 L 945 2132.5 Q 950 2127 948 2114.5 L 947 2112 L 937.5 2112 Q 931.5 2120 917.5 2120 L 912 2116.5 L 913 2108.5 L 919.5 2102 L 928.5 2097 L 935.5 2095 Z "></path><path d="M 1802.5 2102 Q 1809.6 2102.9 1813 2107.5 Q 1815.5 2111 1814 2118.5 L 1811 2130.5 L 1811 2145.5 L 1812 2146.5 L 1812 2156 L 1823.5 2156 L 1830.5 2154 L 1834 2155 L 1836 2160.5 L 1831.5 2167 L 1824.5 2169 L 1813 2175.5 L 1813 2186.5 L 1816 2193.5 L 1816 2197.5 L 1815 2198.5 L 1815 2206.5 L 1811.5 2211 Q 1808.3 2213.3 1801.5 2212 L 1795 2208.5 Q 1792.5 2205 1794 2197.5 L 1795 2196.5 L 1795 2188.5 L 1793 2183 L 1773.5 2184 L 1770 2183 L 1767 2176.5 L 1767 2171.5 L 1769.5 2168 L 1786.5 2165 L 1791 2162.5 L 1792 2160.5 L 1792 2141.5 L 1793 2140.5 L 1793 2120.5 L 1791.5 2119 L 1783.5 2119 L 1774.5 2122 L 1763.5 2123 L 1752.5 2127 L 1742.5 2133 L 1730.5 2133 L 1726 2129.5 Q 1725 2121.5 1729.5 2119 Q 1740.5 2117 1748.5 2112 L 1756.5 2111 L 1767.5 2107 L 1773.5 2107 L 1785.5 2104 L 1796.5 2104 L 1802.5 2102 Z "></path><path d="M 1142.5 2104 L 1150.5 2105 L 1152 2106.5 Q 1155.4 2111.6 1154 2121.5 L 1158 2135.5 L 1159.5 2137 Q 1168 2139 1170 2134.5 L 1175 2126.5 L 1177 2117.5 L 1183.5 2107 L 1191.5 2105 L 1192.5 2106 L 1200 2106 L 1204 2119.5 L 1208 2173.5 L 1211 2184.5 L 1211 2189.5 L 1214 2197.5 L 1214 2204.5 L 1209.5 2210 Q 1205.7 2212.7 1197.5 2211 Q 1192.1 2207.9 1191 2200.5 L 1191 2192.5 L 1187 2175.5 L 1186 2156 L 1177.5 2156 L 1169.5 2161 L 1152.5 2161 L 1148 2157.5 L 1139 2141.5 L 1136 2126.5 L 1132 2117.5 L 1132 2108.5 L 1136.5 2105 Q 1141.3 2106.2 1142.5 2104 Z "></path><path d="M 1574.5 2104 Q 1585.1 2102.8 1590 2106 Q 1592.6 2109.2 1592 2116.5 L 1582 2130.5 L 1582 2140 L 1590.5 2140 L 1594.5 2137 L 1604.5 2135 L 1613 2141.5 L 1615 2149.5 L 1616 2169.5 L 1612 2187.5 L 1603.5 2200 L 1591.5 2205 L 1580.5 2205 Q 1570.2 2203.3 1565 2196.5 L 1558 2183.5 L 1556 2175.5 L 1556 2160.5 L 1557 2159.5 L 1558 2146.5 L 1565 2125.5 L 1565 2121.5 Q 1568.5 2117 1569 2109.5 L 1572.5 2105 L 1574.5 2104 Z "></path><path d="M 1986.5 2105 Q 1994.8 2104.8 1998 2109.5 L 1999 2112.5 L 1998 2116.5 L 1995.5 2119 L 1977.5 2118 L 1958 2127 L 1958 2135.5 L 1967.5 2145 L 1972.5 2149 L 1981.5 2149 L 1997.5 2137 L 2003.5 2134 L 2007.5 2134 L 2013 2137.5 Q 2012.6 2145.6 2006.5 2148 L 1995 2156.5 Q 1990.1 2159.8 1992 2169 L 2011 2184.5 L 2013 2189.5 L 2013 2193.5 L 2007.5 2200 L 2003.5 2202 L 1994.5 2203 Q 1993 2200.5 1987.5 2202 L 1981.5 2199 L 1974 2192.5 Q 1968.6 2188.4 1967 2180.5 L 1967 2162.5 L 1948 2143.5 L 1941 2134.5 L 1939 2127.5 Q 1946.6 2117.6 1959.5 2113 Q 1967.2 2112.2 1971.5 2108 L 1986.5 2105 Z "></path><path d="M 1412.5 2107 L 1413.5 2108 L 1421.5 2108 L 1425 2111.5 Q 1426 2116 1423.5 2117 L 1406.5 2122 L 1398.5 2122 L 1384.5 2125 L 1370.5 2130 L 1363.5 2135 L 1359 2136 L 1359 2145 L 1373.5 2145 L 1389.5 2149 L 1395 2153.5 L 1405 2166.5 L 1405 2178.5 L 1400 2193 L 1387.5 2200 L 1374.5 2200 L 1368 2195.5 Q 1366.1 2190.1 1369.5 2191 Q 1378.4 2188.9 1383 2182.5 Q 1386.6 2177.1 1385 2166.5 Q 1378.8 2158.8 1363.5 2160 L 1362.5 2161 L 1354.5 2161 L 1340.5 2166 L 1334.5 2166 L 1324 2161.5 L 1323 2152.5 L 1337 2133.5 Q 1338.3 2123.8 1343.5 2118 L 1382.5 2111 L 1387.5 2109 L 1411.5 2108 L 1412.5 2107 Z "></path><path d="M 2143.5 2111 L 2160.5 2116 L 2172.5 2127 Q 2179.1 2127.9 2182 2132.5 L 2184 2139.5 L 2185 2167.5 L 2186 2168.5 L 2187 2185.5 L 2190 2199.5 L 2196 2207.5 L 2198 2214.5 L 2191.5 2222 L 2187.5 2222 L 2180 2216.5 L 2177 2210.5 L 2175 2199.5 L 2173 2195.5 L 2172 2183.5 L 2171 2182.5 L 2171 2172.5 L 2170 2169 L 2161.5 2169 Q 2158 2174.5 2148.5 2174 L 2139.5 2172 L 2130 2163.5 L 2124 2146.5 L 2123 2137.5 L 2124 2136.5 L 2125 2123.5 L 2131.5 2115 L 2143.5 2111 Z M 2143 2127 L 2139 2133 L 2140 2147 L 2143 2154 L 2144 2155 L 2153 2155 L 2160 2147 L 2160 2135 L 2152 2127 L 2143 2127 Z "></path></svg>